<svg xmlns="http://www.w3.org/2000/svg" viewBox="0 0 64 64">
  <rect width="64" height="64" rx="14" fill="#324a42"/>
  <path d="M32 14c-7.5 0-14 6.2-14 14.1 0 6 3.7 11 9.1 13.1V46c0 1.3 1.1 2.4 2.4 2.4h4.9c1.4 0 2.5-1.1 2.5-2.4v-4.8c5.5-2.1 9.2-7.1 9.2-13.1C46 20.2 39.5 14 32 14Z" fill="none" stroke="#c4d6c7" stroke-width="2.5" stroke-linejoin="round"/>
  <path d="M32 22v18M26 28c0-2 2-3 4-3 1.7 0 3 1 3 2.6 0 1.4-1 2.4-3 2.4M38 28c0-2-2-3-4-3-1.7 0-3 1-3 2.6 0 1.4 1 2.4 3 2.4" fill="none" stroke="#9bb8a1" stroke-width="2" stroke-linecap="round" stroke-linejoin="round"/>
</svg>
